<svg xmlns="http://www.w3.org/2000/svg" width="650.20557" height="277.02802" viewBox="0 0 650.20557 277.02802"><path d="M467.90511,47.807l1.981,3.235c3.848,3.201,10.947-2.489,16.377-1.654,2.688-.913,3.491.605,5.494,1.054,4.377.979,6.328,1.669,11.232,1.354l5.996-1.281,13.09-4.664c2.931,2.342,7.437.948,10.858,2.257,2.949,1.233,5.191-.216,8.454-.123a7.25945,7.25945,0,0,0,5.091-3.109c5.686-5.525,14.328-8.604,19.528-14.197,0,0,4.939-4.113,5.488-4.694.548-.579,2.612-2.467,3.23-3.02,3.111-2.74,5.634-6.288,3.714-8.391l-.03534.2055,1.834-.903c5.07605-2.231,8.233-5.019,13.317-6.899,5.91,1.874,12.854-1.113,18.306-2.456,4.318-.199,7.926-5.63,11.837-2.862a20.56691,20.56691,0,0,0,13.622-.225q1.776.633,3.512,1.377a4.08862,4.08862,0,0,0,3.308,2.486c-.19708,7.57834-.85809,19.45334,4.16187,25.48132l-.02332-.077q.61194,2.17657,1.053,4.394l-.65057,3.50574c-.627.888-1.178,1.599-2.16.927a19.01308,19.01308,0,0,1-1.353,3.239,17.18157,17.18157,0,0,0-2.935,5.217l-1.301,2.158a4.36231,4.36231,0,0,1-1.5,1.749c-.236.157-.498.268-.737.441a14.422,14.422,0,0,0-1.489,1.331,5.76826,5.76826,0,0,0-.435.678,5.21851,5.21851,0,0,0-.845,1.538l.2832-.1691a10.20461,10.20461,0,0,0-3.935,5.091c-4.323,3.34-8.651,7.614-12.36,10.381a1.51971,1.51971,0,0,0-.652,2.305,5.34875,5.34875,0,0,1-1.482,4.596,2.89233,2.89233,0,0,1-1.754,1.451l-.328,1.601a5.06608,5.06608,0,0,0-5.24,2.16c-1.505,1.819-3.121,3.37-4.73206,4.999-1.449,1.469-1.381,3.865-2.666,5.48-1.306,1.643-3.132,2.68-3.938,4.719-3.12946,2.943-6.71442,8.193-7.12543,12.439a22.15147,22.15147,0,0,0-.578,15.098,35.60168,35.60168,0,0,0-4.685,10.186l-2.0816,2.1524c-1.681,2.134-4.123,3.673-5.595,6.171-2.57605,3.196.327,6.752-3.809,8.571a11.87419,11.87419,0,0,1-4.765.031c-3.263.367-7.124,5.162-10.184,7.32-2.329.651-4.57.973-6.369,2.512-2.426.566-4.627,1.598-5.495,3.865a12.04555,12.04555,0,0,0-6.947,2.828c-2.938.953-4.945,3.784-6.47,5.998a101.81,101.81,0,0,0-7.124,9.733c-4.292-.135-17.447,6.207-20.514,4.963-4.847.494-9.488,2.781-13.971,3.861-3.869,2.881-4.379,8.324-10.43,6.676-.129,5.512-10.675,15.121-15.526,16.047-2.08,4.181-3.131,8.259-5.542,12.316a6.69377,6.69377,0,0,0-1.983,6.443c-2.072,2.407-4.833,11.174-4.79,14.469l-1.457,4.363c-1.161,2.733-3.752,3.026-4.392,6.229l.33209.12109c-3.601.654-7.225,4.883-11.233,4.711-6.518,3.385-10.213-1.746-15.878-4.029l-2.558-4.272c-3.515-.666-5.449,1.447-8.575,1.533-2.571.071-6.588-1.039-9.757-.978-3.385-.528-5.194,1.306-8.026,1.955-.378.088-3.813.982-5.82,1.254-3.137.58-8.554-.289-11.235.555-2.446.763-5.031,4.076-7.673,5.16-1.324,2.765-7.767,4.81-10.985,4.445-2.718-.316-4.19-2.834-6.268-3.266-2.212-.451-4.167.616-5.994.631-7.652.045-18.234-1.943-24.477,3.787-3.5,3.58-5.553,1.073-8.405.877-4.069-.273-6.557.948-10.584,1.174-2.036.119-9.157,2.043-10.657,1.686-4.089-.991-2.676-5.561-7.523-4.086-2-.612-3.069-2.268-3.737-4.705-.883-3.215-4.022-2.518-6.447-3.823-4.134-2.228-7.841-4.234-12.138-6.248-2.443-1.271-5.593-.177-8.126-.177-3.52,0-7.18-4.996-10.584-5.311-7.75,4.619-14.668-8.715-18.991-12.154-2.28-1.811-4.554-4.082-7.066-5.58-1.579-.942-4.228-.262-5.022-1.243-2.106-2.597-6.614-8.914-9.172-9.619-5.744-3.478-9.634-12.097-17.63-11.205-2.748.133-6.771,1.164-9.406.471-2.129-.564-2.531-3.027-5.166-3.307-5.214,3.336-7.327-2.418-12.465-2.257-4.427.14-5.333,5.603-10.334,4.841-4.613-.992-7.309-1.259-9.906-5.57a94.71034,94.71034,0,0,0-13.343-17.281c-5.89-1.914-18.332-.186-24.41,1.326-5.853,1.455-10.48-1.67-13.936-2.229,0,0-3.485-1.331-4.319-3.247a20.79373,20.79373,0,0,0-1.833-3.333,31.99533,31.99533,0,0,0-2.417-2.167,17.56766,17.56766,0,0,1-2.666-2.333c-.25-.417-.917-1.667-.917-1.667a8.38458,8.38458,0,0,0-1.5-1.416,4.21212,4.21212,0,0,1-1.25-1.834,7.36377,7.36377,0,0,0-1.75-2.166,27.41766,27.41766,0,0,1-2.417-2.167,5.4701,5.4701,0,0,0-1.75-2,44.41562,44.41562,0,0,0-5.75-3.583,23.58412,23.58412,0,0,1-5.25-3.334,5.463,5.463,0,0,0-3.666-1.666,3.35128,3.35128,0,0,1-2.249-.833c-1.388-1.108-3.657-.329-5.228-.935-1.388-.535-1.873-1.886-3.44-1.816l.16689.16769a7.31915,7.31915,0,0,0-1.25-1.5c-.75-.667-4.25-2.917-4.25-2.917a16.9221,16.9221,0,0,1-2.834-1.916c-1-1-2.166.25-2.166.25-1.75,1.167-2.22.241-2.22.241a3.84708,3.84708,0,0,1-.591-.592l-.419-.449a18.08893,18.08893,0,0,1-1.656-1.797,9.23434,9.23434,0,0,0-3.132-2.024,29.23806,29.23806,0,0,0-2.861-1.537c-3.666-1.287-7.359-1.568-8.453-5.502a9.73044,9.73044,0,0,1,.35-3.722,4.09376,4.09376,0,0,0,.011-1.379,8.87609,8.87609,0,0,1,.18-1.524,14.27208,14.27208,0,0,0,.136-2.007c0-.668.132-1.209.17-1.877.04-.653.253-1.229.286-1.914l.011-.413.045-.185a9.28623,9.28623,0,0,0,.614-1.361,5.66813,5.66813,0,0,0-.138-3.688,121.88846,121.88846,0,0,1-8.39-21.474,2.4224,2.4224,0,0,1,.268-1.829c.549-.666,2.743-2.252,2.438-4.021a19.5826,19.5826,0,0,0-2.803-6.338l.3267.17581c-.416-3.45.136-6.766-1.903-9.784l-.75-2.177c-.074-1.423,1.361-1.912,2.779-.751,1.741-4.29,7.30992-7.45691,12.4092-6.73874,2.194-1.926,6.649-4.72,8.207-7.158,3.282-3.342,11.238-1.882,11.238-1.882,2.132-1.2,3.062-1.854,5.741-1.878l.851.147c9.16,2.04,13.237.406,19.326-6.897,3.855-4.628,7.034-9.968,13.004-11.484,2.317.419,5.009.508,6.336,3.589.975,2.262,1.839,4.336,4.356,4.81,2.573.488,5.137,2.582,7.819,2.364a7.35173,7.35173,0,0,0,3.666-1.4c.903-.699,1.411-1.814,2.347-2.485a5.39566,5.39566,0,0,1,3.288-.603,17.18656,17.18656,0,0,0,3.139-.462c1.687-.297,3.867-.309,4.615,1.446a5.30719,5.30719,0,0,0,1.188,2.298,11.32606,11.32606,0,0,0,2.686,2.101,25.09123,25.09123,0,0,0,4.658,2.377c1.616.469,3.343.575,4.978.982,1.567.389,3.093.926,4.652,1.343a12.613,12.613,0,0,0,5.183.579,8.04032,8.04032,0,0,1,4.087.242c.967.315,4.539,3.611,5.399,3.572,2.231-.109,4.312-2.404,6.515-1.944-.916,4.664-.61,6.107,1.328,9.803.227,6.3,8.071,5.377,9.429,11.39.183,1.372,6.706,13.37,7.226,13.593,7.244,6.719,16.392-5.43,21.667,1.832,4.025.553,4.275-3.205,6.898-5.068,3.151-2.241,7.148-2.429,10.935-1.477,3.023-.773,4.369-4.245,7.318-5.237a21.92621,21.92621,0,0,1,3.708-.432,29.701,29.701,0,0,0,3.046-.768c1.709-.456,3.746-1.161,5.539-.963a5.638,5.638,0,0,1,1.279,2.559c2.95,2.423,7.363,1.489,10.608,4.589,5.162-5.341,9.334-7.562,16.78-7.423,3.054-.535,7.168,1.947,10.401,2.597,3.404.686,7.35,2.063,10.829,2.063,3.18,0,6.206,2.523,9.58.73,2.936-1.566,8.23-2.671,11.449-1.733,5.736-.757,14.576,1.297,17.029-3.559,4.802-.153,8.586-3.51,13.166-2.081,7.438-1.572,16.923,1.443,22.446-3.709,3.982-2.614,4.897-5.757,9.205-7.361,1.246.479,3.109.269,3.93,1.326.991,1.269,1.752,2.646,3.385,2.356a6.89882,6.89882,0,0,1,4.958.967c2.211,1.508,6.511-1.433,9.192-2.033,2.668,1.15,5.219.951,7.951.727a42.57764,42.57764,0,0,1,9.293.515c3.31.381,5.007-3.523,8.792-1.089,3.375,1.072,7.793.082,11.535.351,1.829,1.415,2.649,1.233,4.841,1.634,0,0,8.078-.214,9.878-1.233l.95529-.67758c2.109-4.386,7.011-6.518,11.134-8.505l4.44-3.385a102.58084,102.58084,0,0,0,12.266-5.015,7.60031,7.60031,0,0,0,3.636-1.028l2.508-.978-1.756,1.432" style="fill:none;stroke:#6ab0c4;stroke-linecap:round;stroke-linejoin:round;stroke-width:1.75px"/></svg>